<svg width="25" height="25" viewBox="0 0 25 25" fill="none" xmlns="http://www.w3.org/2000/svg">
<path d="M12.5 25C19.4035 25 25 19.4035 25 12.5C25 5.59646 19.4035 0 12.5 0C5.59646 0 0 5.59646 0 12.5C0 19.4035 5.59646 25 12.5 25Z" fill="url(#paint0_linear_1035_34)"/>
<path d="M4.65518 13.1115C6.11642 12.3066 7.74757 11.6348 9.27163 10.9596C11.8936 9.85364 14.526 8.76687 17.185 7.7551C17.7023 7.5827 18.6318 7.41411 18.723 8.18078C18.6731 9.26598 18.4678 10.3448 18.3269 11.4237C17.9695 13.7962 17.5564 16.1606 17.1535 18.5253C17.0147 19.3129 16.028 19.7207 15.3966 19.2166C13.8793 18.1917 12.3504 17.1768 10.8525 16.1282C10.3618 15.6296 10.8168 14.9136 11.255 14.5575C12.5047 13.326 13.83 12.2796 15.0144 10.9844C15.3339 10.2129 14.3899 10.8631 14.0786 11.0623C12.3677 12.2413 10.6988 13.4922 8.89502 14.5284C7.97366 15.0356 6.89981 14.6021 5.97887 14.3191C5.15313 13.9772 3.94312 13.6328 4.6551 13.1115L4.65518 13.1115Z" fill="white"/>
<defs>
<linearGradient id="paint0_linear_1035_34" x1="9.37646" y1="1.0425" x2="3.12646" y2="15.625" gradientUnits="userSpaceOnUse">
<stop stop-color="#37AEE2"/>
<stop offset="1" stop-color="#1E96C8"/>
</linearGradient>
</defs>
</svg>
